<svg width="18" height="18" viewBox="0 0 18 18" fill="none" xmlns="http://www.w3.org/2000/svg">
<g clip-path="url(#clip0_2042_521)">
<path d="M0.792389 17.6486L1.92426 13.1208C0.681015 11.7294 0 10.0025 0 8.22656C0 6.1003 0.941666 4.10532 2.65141 2.60925C4.34111 1.13063 6.58328 0.316406 8.96484 0.316406C11.3496 0.316406 13.6034 1.12994 15.3112 2.60733C17.0452 4.10724 18 6.10291 18 8.22656C18 10.3502 17.0452 12.3459 15.3112 13.8458C13.6034 15.3232 11.3496 16.1367 8.96484 16.1367C7.67738 16.1367 6.42906 15.8956 5.2505 15.4195L0.792389 17.6486ZM8.96484 1.37109C4.60313 1.37109 1.05469 4.44644 1.05469 8.22656C1.05469 9.82192 1.7048 11.3774 2.88542 12.6065L3.08743 12.8168L2.37167 15.6796L5.21494 14.2581L5.44057 14.3557C6.55293 14.8377 7.73877 15.082 8.96484 15.082C13.3653 15.082 16.9453 12.0067 16.9453 8.22656C16.9453 4.44644 13.3653 1.37109 8.96484 1.37109Z" fill="black"/>
<path d="M5.27344 9.28125C4.69185 9.28125 4.21875 8.80815 4.21875 8.22656C4.21875 7.64497 4.69185 7.17188 5.27344 7.17188C5.85503 7.17188 6.32812 7.64497 6.32812 8.22656C6.32812 8.80815 5.85503 9.28125 5.27344 9.28125ZM5.27344 8.22588V8.22656C5.27344 8.22615 5.27344 8.22588 5.27344 8.22588Z" fill="black"/>
<path d="M8.96484 9.28125C8.38326 9.28125 7.91016 8.80815 7.91016 8.22656C7.91016 7.64497 8.38326 7.17188 8.96484 7.17188C9.54643 7.17188 10.0195 7.64497 10.0195 8.22656C10.0195 8.80815 9.54643 9.28125 8.96484 9.28125ZM8.96484 8.22588V8.22656C8.96484 8.22615 8.96484 8.22588 8.96484 8.22588Z" fill="black"/>
<path d="M12.6562 9.28125C12.0747 9.28125 11.6016 8.80815 11.6016 8.22656C11.6016 7.64497 12.0747 7.17188 12.6562 7.17188C13.2378 7.17188 13.7109 7.64497 13.7109 8.22656C13.7109 8.80815 13.2378 9.28125 12.6562 9.28125ZM12.6562 8.22588V8.22656C12.6562 8.22615 12.6562 8.22588 12.6562 8.22588Z" fill="black"/>
</g>
<defs>
<clipPath id="clip0_2042_521">
<rect width="18" height="18" fill="white"/>
</clipPath>
</defs>
</svg>
